<?xml version="1.0" standalone="no"?>
<!DOCTYPE svg PUBLIC "-//W3C//DTD SVG 20010904//EN"
 "http://www.w3.org/TR/2001/REC-SVG-20010904/DTD/svg10.dtd">
<svg version="1.0" xmlns="http://www.w3.org/2000/svg"
 width="924.000000pt" height="415.000000pt" viewBox="0 0 924.000000 415.000000"
 preserveAspectRatio="xMidYMid meet">

<g transform="translate(0.000000,415.000000) scale(0.100000,-0.100000)"
fill="#e50914" stroke="none">
<path d="M1191 3464 c-29 -21 -51 -72 -51 -122 0 -21 19 -88 41 -148 29 -76
50 -157 70 -269 15 -88 35 -180 44 -205 9 -25 21 -69 26 -98 12 -65 66 -209
119 -317 21 -44 54 -129 73 -190 19 -60 47 -146 62 -190 60 -181 73 -317 35
-355 -11 -11 -26 -17 -35 -14 -28 11 -203 290 -287 459 -47 94 -99 192 -116
219 -18 28 -32 53 -32 58 0 4 -25 49 -56 100 -31 51 -68 113 -82 138 -34 60
-69 105 -182 233 -114 130 -223 287 -280 405 -25 50 -64 111 -94 143 -28 31
-57 64 -64 73 -17 21 -39 20 -50 -1 -5 -10 -12 -101 -14 -202 -6 -198 9 -316
50 -411 23 -54 74 -281 97 -433 9 -59 27 -144 40 -190 13 -45 34 -145 46 -222
20 -133 21 -162 16 -590 -6 -506 0 -619 38 -713 14 -34 30 -86 36 -115 31
-147 122 -200 195 -114 l27 32 -6 180 c-3 99 -11 228 -16 288 -6 59 -15 153
-21 210 -5 57 -19 128 -31 162 -20 55 -23 87 -30 365 -6 277 -9 314 -32 405
-14 55 -30 132 -36 170 -7 39 -19 93 -27 120 -22 72 -50 226 -46 253 4 29 36
46 61 33 40 -22 119 -123 172 -222 31 -57 82 -149 114 -204 32 -55 79 -136
104 -180 49 -85 72 -135 92 -200 6 -22 35 -71 63 -110 29 -38 63 -88 76 -110
13 -22 36 -56 51 -75 14 -19 53 -87 84 -150 32 -63 68 -128 81 -145 29 -39 81
-144 111 -223 13 -35 33 -82 44 -105 12 -22 28 -81 36 -131 8 -54 24 -107 37
-131 13 -22 45 -92 72 -155 26 -63 60 -127 75 -143 68 -67 197 -1 175 90 -4
16 -22 58 -41 94 -34 67 -108 334 -120 439 -4 30 -15 89 -26 132 -12 48 -19
112 -19 175 -1 54 -5 130 -11 168 -5 39 -14 140 -18 225 -7 113 -14 171 -29
215 -12 33 -28 89 -36 125 -8 36 -23 85 -34 110 -10 25 -25 70 -32 100 -7 30
-43 118 -80 195 -37 77 -71 158 -75 180 -4 22 -24 92 -46 155 -26 78 -43 156
-54 240 -21 163 -40 227 -119 395 -47 100 -89 131 -135 99z"/>
<path d="M1870 3449 c-71 -28 -81 -71 -46 -200 14 -52 32 -150 41 -219 9 -69
23 -145 30 -170 8 -25 19 -85 25 -135 5 -49 21 -128 34 -175 22 -77 46 -228
75 -485 6 -49 11 -254 10 -455 0 -201 4 -387 9 -415 19 -99 60 -351 67 -409 6
-50 13 -66 40 -93 29 -29 40 -33 84 -33 28 0 101 -7 163 -15 92 -13 129 -23
198 -56 65 -31 105 -43 168 -50 102 -11 150 -1 186 42 31 37 33 58 5 93 -29
36 -47 44 -138 60 -47 8 -117 31 -168 54 -73 33 -105 42 -191 50 -119 12 -147
26 -161 79 -5 21 -12 252 -16 513 -6 469 -6 476 14 502 28 35 59 41 138 23 38
-8 104 -19 148 -25 44 -6 108 -20 143 -31 77 -26 123 -20 164 21 49 50 34 112
-37 148 -47 23 -184 54 -342 76 -93 13 -179 30 -190 37 -41 25 -63 81 -63 157
0 53 -9 101 -36 189 -86 279 -144 526 -144 608 0 39 25 71 65 81 14 3 62 -3
108 -14 45 -12 120 -26 167 -33 47 -6 144 -25 215 -41 111 -26 152 -31 280
-32 172 -1 205 9 238 76 17 35 17 40 2 71 -16 34 -35 47 -123 83 -36 15 -54
16 -111 8 -37 -5 -89 -6 -116 -2 -66 10 -302 36 -439 49 -66 6 -138 19 -185
35 -42 14 -114 30 -161 35 -104 11 -118 10 -150 -2z"/>
<path d="M3585 3329 c-59 -35 -124 -130 -139 -204 -8 -41 5 -156 49 -430 37
-235 58 -402 75 -603 6 -63 16 -139 24 -170 13 -53 20 -113 47 -432 5 -63 14
-218 19 -345 5 -126 14 -254 20 -284 5 -29 10 -119 10 -198 l0 -145 29 -29
c35 -35 77 -38 114 -8 52 40 53 65 29 634 -17 397 -48 719 -83 870 -21 90 16
135 136 164 22 5 203 12 402 15 235 3 369 8 382 15 28 16 41 43 41 88 0 75
-74 114 -203 109 -34 -2 -174 -6 -312 -10 -201 -6 -263 -11 -317 -27 -70 -20
-96 -23 -123 -13 -29 11 -54 80 -65 175 -6 50 -13 95 -15 99 -3 5 -12 66 -20
137 -8 70 -22 153 -30 183 -8 30 -15 79 -15 108 0 46 4 58 29 83 26 26 36 29
94 29 35 0 88 -5 118 -10 29 -6 94 -15 144 -20 114 -13 306 -53 376 -79 82
-30 128 -40 248 -55 84 -10 126 -21 175 -45 36 -17 76 -31 89 -31 34 0 73 34
87 76 10 30 9 40 -12 81 -31 63 -66 79 -218 98 -127 17 -157 24 -450 101 -91
24 -181 44 -201 44 -20 0 -74 7 -120 15 -117 20 -388 29 -414 14z"/>
<path d="M7418 3070 c-54 -54 -43 -82 150 -365 46 -67 153 -250 259 -440 86
-154 155 -308 156 -346 2 -41 -23 -98 -171 -399 -63 -128 -115 -247 -128 -295
-59 -218 -77 -281 -95 -322 -36 -84 -20 -158 41 -183 37 -15 75 2 106 48 25
36 82 211 113 342 23 99 54 169 149 340 75 133 96 156 137 146 41 -10 126
-206 190 -436 12 -47 34 -110 48 -140 13 -30 27 -71 31 -90 9 -43 63 -231 118
-405 87 -276 160 -357 250 -276 45 40 42 80 -15 206 -25 55 -53 130 -61 167
-9 37 -27 94 -40 126 -13 31 -33 105 -44 164 -13 65 -32 129 -51 166 -29 58
-43 100 -96 293 -13 47 -55 151 -93 230 -114 236 -135 289 -134 334 0 29 19
80 65 175 35 74 70 153 77 175 7 22 25 65 40 95 15 30 35 80 45 110 10 30 27
73 38 95 11 22 33 74 47 115 15 41 48 124 74 184 25 59 46 117 46 128 0 11
-15 35 -34 54 -38 38 -77 44 -115 18 -25 -18 -92 -155 -153 -314 -22 -58 -53
-132 -68 -165 -16 -33 -40 -89 -53 -125 -23 -60 -50 -129 -83 -207 -17 -40
-54 -52 -89 -29 -14 9 -41 49 -61 89 -45 89 -158 288 -194 342 -15 22 -36 56
-46 75 -46 84 -200 304 -229 326 -45 34 -89 32 -127 -6z"/>
<path d="M5270 3055 c-30 -32 -59 -182 -60 -308 0 -49 -5 -118 -10 -155 -10
-64 -26 -469 -39 -977 -6 -222 -8 -244 -29 -290 -13 -27 -33 -97 -43 -155 -11
-58 -31 -134 -44 -170 -13 -36 -26 -93 -30 -125 -4 -33 -13 -89 -21 -124 -30
-149 49 -189 284 -141 104 20 241 36 442 50 69 4 143 11 165 15 25 4 66 1 108
-9 179 -42 488 1 527 73 27 51 -5 113 -68 132 -29 8 -52 7 -105 -5 -80 -19
-262 -21 -339 -5 -40 9 -93 9 -213 0 -146 -11 -406 -36 -497 -48 -28 -4 -41 0
-57 16 -36 36 -32 61 55 371 38 134 38 136 45 380 4 135 12 286 18 335 6 50
16 221 21 380 10 269 21 475 36 652 6 71 6 73 -24 103 -39 39 -88 41 -122 5z"/>
<path d="M6674 2949 c-28 -30 -29 -33 -32 -152 -3 -120 8 -214 41 -357 9 -36
20 -99 26 -140 5 -41 26 -163 46 -270 19 -107 42 -235 50 -284 9 -49 27 -141
41 -205 29 -133 41 -279 53 -611 8 -209 6 -247 -10 -342 -11 -59 -20 -157 -22
-218 l-2 -111 33 -30 c42 -38 74 -37 118 4 l36 33 16 155 c11 102 16 254 16
454 1 423 -6 537 -42 676 -17 63 -35 159 -42 214 -6 55 -24 150 -40 210 -15
61 -31 139 -35 175 -7 72 -45 296 -69 406 -9 39 -16 122 -17 185 0 63 -5 131
-11 153 -22 86 -98 114 -154 55z"/>
</g>
</svg>
